HIERARCHY
ROOT Hips
{
	OFFSET 0.000000 0.000000 0.000000 
	CHANNELS 6 Xposition Yposition Zposition Zrotation Yrotation Xrotation
	JOINT LeftUpLeg
	{
		OFFSET 1.363060 -1.794630 0.839290 
		CHANNELS 3 Zrotation Yrotation Xrotation
		JOINT LeftLeg
		{
			OFFSET 2.448110 -6.726130 0.000000 
			CHANNELS 3 Zrotation Yrotation Xrotation
			JOINT LeftFoot
			{
				OFFSET 2.562200 -7.039590 0.000000 
				CHANNELS 3 Zrotation Yrotation Xrotation
				JOINT LeftToeBase
				{
					OFFSET 0.157640 -0.433110 2.322550 
					CHANNELS 3 Zrotation Yrotation Xrotation
					End Site
					{
						OFFSET 0.000000 0.000000 0.000000 
					}
				}
			}
		}
	}
	JOINT RightUpLeg
	{
		OFFSET -1.305520 -1.794630 0.839290 
		CHANNELS 3 Zrotation Yrotation Xrotation
		JOINT RightLeg
		{
			OFFSET -2.542530 -6.985550 0.000000 
			CHANNELS 3 Zrotation Yrotation Xrotation
			JOINT RightFoot
			{
				OFFSET -2.568260 -7.056230 0.000000 
				CHANNELS 3 Zrotation Yrotation Xrotation
				JOINT RightToeBase
				{
					OFFSET -0.164730 -0.452590 2.363150 
					CHANNELS 3 Zrotation Yrotation Xrotation
					End Site
					{
						OFFSET 0.000000 0.000000 0.000000 
					}
				}
			}
		}
	}
	JOINT Spine
	{
		OFFSET 0.028270 2.035590 -0.193380 
		CHANNELS 3 Zrotation Yrotation Xrotation
		JOINT Spine1
		{
			OFFSET 0.056720 2.048850 -0.042750 
			CHANNELS 3 Zrotation Yrotation Xrotation
			JOINT Neck1
			{
				OFFSET -0.054170 1.746240 0.172020 
				CHANNELS 3 Zrotation Yrotation Xrotation
				JOINT Head
				{
					OFFSET 0.104070 1.761360 -0.123970 
					CHANNELS 3 Zrotation Yrotation Xrotation
					End Site
					{
						OFFSET 0.000000 0.000000 0.000000 
					}
				}
			}
			JOINT LeftArm
			{
				OFFSET 3.362410 1.200890 -0.311210 
				CHANNELS 3 Zrotation Yrotation Xrotation
				JOINT LeftForeArm
				{
					OFFSET 4.983000 -0.000000 -0.000000 
					CHANNELS 3 Zrotation Yrotation Xrotation
					JOINT LeftHand
					{
						OFFSET 3.483560 -0.000000 -0.000000 
						CHANNELS 3 Zrotation Yrotation Xrotation
						JOINT LeftHandIndex1
						{
							OFFSET 0.715260 -0.000000 -0.000000 
							CHANNELS 3 Zrotation Yrotation Xrotation
							End Site
							{
								OFFSET 0.000000 0.000000 0.000000 
							}
						}
					}
				}
			}
			JOINT RightArm
			{
				OFFSET -3.136600 1.374050 -0.404650 
				CHANNELS 3 Zrotation Yrotation Xrotation
				JOINT RightForeArm
				{
					OFFSET -5.241900 -0.000000 -0.000000 
					CHANNELS 3 Zrotation Yrotation Xrotation
					JOINT RightHand
					{
						OFFSET -3.444170 -0.000000 -0.000000 
						CHANNELS 3 Zrotation Yrotation Xrotation
						JOINT RightHandIndex1
						{
							OFFSET -0.622530 -0.000000 -0.000000 
							CHANNELS 3 Zrotation Yrotation Xrotation
							End Site
							{
								OFFSET 0.000000 0.000000 0.000000 
							}
						}
					}
				}
			}
		}
	}
}
MOTION
Frames: 16
Frame Time: 0.041667
-13.077773 16.087733 0.852008 117.107383 82.775986 128.169527 -13.052090 2.060912 3.736024 2.495417 12.951143 34.815173 -0.637830 5.498020 -8.706478 2.447400 -9.741600 -28.143800 2.990488 -5.779518 -50.790645 -21.206949 -20.676900 94.507944 -0.076955 -1.663751 -7.503564 -0.000200 -0.101300 0.278400 -0.657547 -0.276959 -1.136236 4.385735 -0.015528 0.210024 4.719754 0.287775 9.454819 1.741400 -0.356600 13.635300 -50.329496 -6.019041 41.668309 75.630231 -58.077155 -51.732867 0.075931 -0.377366 -22.955955 -7.125000 0.000000 0.000000 56.211364 -19.783582 36.035175 -33.616480 44.110745 -16.039788 0.776744 1.533069 -22.335989 7.125000 0.000000 0.000000 
-12.291222 16.257026 0.944970 119.866820 83.048470 131.377798 -12.503923 1.727080 8.684154 1.456173 11.045303 28.928023 -1.787486 9.610644 -2.665385 2.373200 -9.603700 -27.702600 3.990913 -4.707832 -53.594397 -18.684799 -20.858306 87.290517 -0.001506 -2.923867 -9.401726 -0.021300 0.942500 -2.590600 -0.476685 -1.698183 -1.319349 4.068635 -0.756456 0.562541 4.185959 1.776966 10.210228 1.536000 0.226500 14.263400 -49.564163 -6.064896 41.847330 79.857499 -58.584375 -55.471418 0.192295 -0.393424 -22.971510 -7.125000 0.000000 0.000000 54.788555 -20.977839 35.401643 -32.702012 43.587454 -15.624026 0.708933 1.588858 -23.362679 7.125000 0.000000 0.000000 
-11.456697 16.434741 1.037399 119.159912 83.669885 130.791812 -12.006017 2.051705 13.625347 0.771104 9.257497 23.538220 -2.941307 15.005023 3.653809 1.537200 -7.827100 -22.190100 4.970301 -3.454972 -54.766890 -15.750319 -20.704548 78.863891 0.033080 -3.922563 -11.186275 -0.044200 1.357600 -3.733200 -0.360638 -2.626932 -1.467323 3.421106 -1.213020 0.827760 3.637552 3.007858 10.662411 1.203000 0.758100 14.317100 -48.584612 -5.439118 42.743762 83.760162 -59.028235 -58.839355 0.309859 -0.419431 -22.500425 -7.125000 0.000000 0.000000 53.571719 -22.870364 34.933034 -32.339995 43.464119 -15.550812 0.629240 1.555650 -24.682297 7.125000 0.000000 0.000000 
-10.614177 16.614055 1.138996 117.170922 84.215021 129.285751 -11.782323 2.192996 18.027686 0.219731 7.494962 18.254227 -3.868271 20.054312 7.740978 1.834300 -8.512000 -24.280400 5.877951 -2.759341 -55.484620 -12.630017 -20.005375 69.643000 0.057334 -4.555656 -11.997276 -0.092000 1.955700 -5.383300 -0.378623 -3.377040 -1.187565 2.153102 -1.644056 2.986869 3.285827 3.916384 10.689525 0.945600 1.203000 14.229500 -46.990849 -6.305409 43.017658 86.619217 -59.278298 -61.315609 0.410528 -0.477418 -22.267834 -7.125000 0.000000 0.000000 52.947326 -22.535581 33.909226 -32.266700 43.590460 -15.765295 0.592587 1.659921 -25.582429 7.125000 0.000000 0.000000 
-9.755239 16.791344 1.231745 109.755665 84.336725 122.517726 -12.615729 2.039736 22.150806 -0.231015 5.789257 13.124389 -4.730797 25.215869 11.070683 0.756300 -5.554300 -15.496600 6.081573 -1.978318 -55.835091 -9.620244 -18.746018 60.207834 0.283497 -6.268131 -11.316952 -0.107100 2.109800 -5.809200 -0.302297 -4.106354 -1.499790 1.773959 -1.974045 2.606692 3.072976 5.086810 11.307110 0.914400 1.670500 14.836100 -46.608828 -5.328251 44.240316 88.975072 -59.423815 -63.226054 0.496098 -0.468869 -21.201346 -7.125000 0.000000 0.000000 51.450428 -23.187681 33.623354 -31.919650 43.428421 -15.878360 0.551888 1.921136 -25.927543 7.125000 0.000000 0.000000 
-8.897581 16.896246 1.318523 102.569703 84.708292 114.980089 -13.531612 1.978488 26.756606 -0.438635 4.701043 10.000567 -5.365870 28.804792 12.632315 0.338800 -3.740300 -10.347100 6.877318 -1.701877 -54.911881 -7.194439 -17.260877 51.939506 0.341592 -6.870055 -10.958655 -0.134500 2.363500 -6.511300 -0.190378 -4.539494 -1.275805 1.254755 -2.221034 3.957740 2.119108 6.155982 11.398628 0.286400 2.060100 14.947400 -46.446668 -5.443422 45.355150 89.535160 -59.497038 -63.474112 0.493791 -0.467640 -20.967201 -7.125000 0.000000 0.000000 49.976479 -22.140296 32.852332 -31.552901 43.100459 -15.623312 0.491011 1.767931 -25.518770 7.125000 0.000000 0.000000 
-8.076382 16.942833 1.422253 95.820829 83.809662 108.348351 -14.961654 2.452325 27.425433 -0.273357 5.458671 12.083766 -5.743626 29.113365 10.284785 0.302700 -3.537600 -9.779200 6.327101 -1.880663 -55.057813 -5.587602 -15.792678 45.718676 0.278511 -5.831669 -7.908018 -0.327200 3.676400 -10.168100 0.045624 -5.306748 -1.291137 2.046951 -2.697303 4.654088 1.440861 7.474162 11.387193 -0.027600 2.528300 14.721500 -47.362299 -4.808015 46.866520 87.789308 -59.527626 -61.793553 0.529937 -0.340833 -21.810468 -7.125000 0.000000 0.000000 47.603248 -21.097985 33.048317 -31.631599 43.045035 -15.765989 0.446228 1.762436 -24.540724 7.125000 0.000000 0.000000 
-7.275865 16.937396 1.536003 89.904007 82.935712 102.126636 -16.079558 3.551150 26.020594 0.347152 7.588994 18.094834 -5.937135 28.193001 6.563232 0.162700 -2.598500 -7.163000 5.740032 -1.863096 -54.946909 -4.816953 -14.942866 42.441966 0.310859 -6.000603 -3.569221 -0.960500 6.240400 -17.483500 0.256567 -5.915060 -1.310237 2.764146 -3.074538 5.024286 0.812628 8.858834 11.843996 -0.317700 3.019300 14.963200 -49.162358 -3.627960 47.563073 85.954338 -59.576509 -59.950086 0.432418 -0.295888 -21.162176 -7.125000 0.000000 0.000000 45.413410 -19.305912 33.405694 -31.021069 42.491815 -15.374348 0.422029 1.812417 -23.972128 7.125000 0.000000 0.000000 
-6.502000 16.869381 1.654657 84.465848 82.599784 95.996692 -16.280884 5.162306 23.564391 1.560448 10.366012 26.303886 -5.653663 26.500332 4.867999 0.128800 -2.313500 -6.373000 5.982180 -1.867738 -54.437198 -4.794028 -14.927029 42.322682 0.199626 -5.069358 -1.740013 -1.230200 7.034100 -19.816400 0.392394 -6.033493 -1.193132 2.964728 -3.171758 5.422662 0.006870 9.763600 11.948695 -0.777600 3.322000 15.045100 -50.327935 -3.426412 49.106007 81.373416 -59.340230 -55.741200 0.371553 -0.199290 -21.405903 -7.125000 0.000000 0.000000 44.228117 -18.052187 33.150961 -31.210177 42.526707 -15.575150 0.454119 1.882131 -23.376751 7.125000 0.000000 0.000000 
-5.745832 16.720983 1.770433 76.051431 82.658007 85.672184 -15.865547 7.449395 22.172762 3.337029 13.083116 35.212290 -5.203339 24.739766 4.562704 0.122200 -2.253900 -6.208000 7.509211 -2.311884 -52.867322 -5.355371 -15.593939 44.714154 0.067381 -3.982377 0.397265 -0.624500 5.056900 -14.070900 0.376760 -5.529599 -0.895151 2.570441 -2.901260 5.602355 -0.448091 10.167466 12.083105 -1.062000 3.484100 15.054900 -51.208013 -3.328169 50.898229 75.134926 -58.772924 -50.057409 0.305075 -0.166474 -22.132858 -7.125000 0.000000 0.000000 44.271481 -16.869165 32.328853 -31.509493 42.663923 -15.803736 0.539866 1.906335 -23.586096 7.125000 0.000000 0.000000 
-5.026550 16.589322 1.880559 69.316039 83.378672 76.909140 -14.590659 8.614691 19.899916 5.686642 15.597857 44.865204 -4.366365 21.868230 5.881042 0.389700 -4.008700 -11.101200 9.750003 -3.059111 -50.569108 -6.302990 -16.595955 48.555934 0.026957 -3.520236 0.865125 -0.056400 -1.532700 4.216000 0.426338 -5.153923 -0.653834 1.956504 -2.637677 5.261184 -0.887714 10.647272 12.091209 -1.244500 3.659700 14.967300 -52.454236 -2.934990 52.300951 67.916914 -57.778824 -43.613242 0.204250 -0.116829 -21.052607 -7.125000 0.000000 0.000000 44.197452 -16.074290 32.058818 -32.339789 43.122399 -16.361505 0.587937 1.873586 -24.000505 7.125000 0.000000 0.000000 
-4.313985 16.469815 1.990898 58.849493 84.015433 63.947676 -12.915756 9.898469 17.968395 8.394406 17.622763 54.615812 -3.433813 18.349367 6.812098 0.492300 -4.498600 -12.483800 10.973749 -2.594613 -47.351390 -7.273429 -17.590531 52.337468 -0.002633 -2.490604 -3.438412 -0.010400 -0.657000 1.805600 0.426191 -4.749413 -0.414133 1.023444 -2.309506 4.486852 -1.363260 11.206998 11.925342 -1.380700 3.871900 14.708900 -53.984768 -2.107014 53.179181 60.438834 -56.316999 -37.109542 0.117611 -0.099977 -20.538283 -7.125000 0.000000 0.000000 44.120604 -15.263057 32.411835 -33.288737 43.653361 -16.986854 0.591763 1.880299 -24.609810 7.125000 0.000000 0.000000 
-3.672740 16.326961 2.066696 35.116920 84.733343 37.112376 -9.682127 11.592887 16.221604 11.405553 19.056727 64.455291 -2.509561 14.525240 7.269442 0.515100 -4.600100 -12.771500 13.553716 -2.133209 -43.165676 -8.173204 -18.505471 55.719547 -0.102255 -1.755370 -6.607381 -0.000500 -0.143900 0.395400 0.420158 -3.784705 -0.206726 -0.567594 -1.625578 2.747200 -1.990005 11.325120 11.661468 -1.715300 3.938600 14.403800 -55.628776 -1.073247 54.142828 53.552103 -54.464866 -31.211676 -0.015672 -0.113146 -19.942887 -7.125000 0.000000 0.000000 44.585171 -14.790547 32.744990 -34.180006 44.129738 -17.548927 0.634579 1.879504 -24.312235 7.125000 0.000000 0.000000 
-3.028084 16.238370 2.103795 -11.737068 84.070438 -11.581517 -3.740884 12.856561 12.786452 14.463583 19.790941 73.843915 -1.648865 10.427734 6.568015 0.463100 -4.364900 -12.105700 18.808189 -2.223311 -39.227460 -8.761844 -19.155865 57.919044 -0.317742 -0.425910 -9.645646 -0.004500 0.434200 -1.193000 0.663337 -2.803582 -0.129502 -2.721898 -0.901758 1.223306 -2.670100 11.746174 11.531412 -1.986200 4.099400 14.249900 -57.973176 0.540567 54.220596 46.774159 -52.139252 -25.700068 -0.132661 -0.119605 -18.690378 -7.125000 0.000000 0.000000 44.612962 -13.636294 33.439045 -34.193902 44.044219 -17.418815 0.669561 1.856374 -23.708923 7.125000 0.000000 0.000000 
-2.381615 16.194981 2.162110 -9.406141 83.479493 -9.624049 -3.406902 13.372292 6.798516 17.282449 20.369625 82.261634 -1.291650 8.666753 6.310939 0.573900 -4.851300 -13.485000 18.657222 -2.647807 -37.094707 -9.306639 -19.438841 59.668732 -0.545065 0.747324 -11.955150 -0.012300 0.716900 -1.970300 0.639855 -2.452168 -0.011468 -3.293020 -0.655217 1.215297 -3.222855 12.327821 11.469967 -2.215100 4.312000 14.223200 -60.506904 1.762563 53.325822 40.402081 -49.429224 -20.818486 -0.303913 -0.099925 -16.582199 -7.125000 0.000000 0.000000 44.448425 -12.260636 34.295447 -34.686283 44.275872 -17.632959 0.665076 1.849846 -22.411781 7.125000 0.000000 0.000000 
-1.769047 16.197646 2.272449 -2.492415 83.725195 -2.089760 -3.964787 13.063771 -1.058466 19.767090 20.609045 89.566473 -1.054556 7.175226 5.292788 0.655500 -5.178700 -14.419100 17.863103 -2.958569 -36.016233 -9.636156 -19.534576 60.676616 -0.656335 0.699434 -13.780154 -0.011700 0.698200 -1.918600 0.730982 -1.892488 -0.049090 -2.423945 -0.452625 1.162925 -3.340934 12.618166 11.411207 -2.242500 4.390000 14.323000 -63.058883 2.936120 52.795536 35.332805 -46.830462 -17.057309 -0.446797 -0.137456 -14.545551 -7.125000 0.000000 0.000000 44.321262 -11.097521 34.622907 -35.247672 44.504738 -17.938405 0.621933 1.881464 -21.066057 7.125000 0.000000 0.000000 
